<svg width="24" height="24" viewBox="0 0 24 24" fill="none" xmlns="http://www.w3.org/2000/svg">
<path d="M12.9893 21.9439C17.1396 21.4945 20.4658 18.2874 20.9391 14.2754C21.5604 9.02958 17.3425 4.5641 12.0553 4.5069V2.15364C12.0553 2.0229 11.8863 1.95345 11.7722 2.03516L6.75968 5.59365C6.67516 5.65494 6.67516 5.77342 6.75968 5.8347L11.7722 9.3932C11.8863 9.47491 12.0553 9.40137 12.0553 9.27472V6.92554C15.7703 6.98273 18.7457 10.0387 18.4921 13.6912C18.2765 16.8329 15.6266 19.3823 12.3765 19.5825C8.93204 19.795 6.00316 17.4172 5.4791 14.2713C5.38189 13.6871 4.85359 13.2622 4.245 13.2622C3.48848 13.2622 2.89679 13.9118 3.01512 14.6349C3.75051 19.1168 8.03182 22.4792 12.9893 21.9439Z" fill="#E6F4FF"/>
</svg>
